<svg height="512" viewBox="0 0 56 56" width="512" xmlns="http://www.w3.org/2000/svg"><g id="Page-1" fill="none" fill-rule="evenodd"><g id="018---Poem" fill="rgb(0,0,0)" fill-rule="nonzero"><path id="Shape" d="m5 46c-.55228475 0-1-.4477153-1-1s.44771525-1 1-1h35v-20.364c-.157.252-.308.514-.45.791-.4488547.8674982-.9764019 1.691958-1.576 2.463-.018.02-.028.045-.047.064-1.8160881 2.4009422-4.4370602 4.0664773-7.382 4.691-.7396223.1499723-1.4923267.2260132-2.247.227-1.4240448.0154339-2.8330473-.2922832-4.121-.9-.2754536 1.5531766-.4425236 3.1236343-.5 4.7-.0023498.3165273-.1544214.6132525-.41.8l-4.564 3.341c-.1714895.1254937-.3784975.1930953-.591.193h-11.112c-.55228475 0-1-.4477153-1-1s.44771525-1 1-1h10.293c.8160031-3.5544768 2.1620638-6.9659805 3.993-10.12-1.072-2.511-2.852-8.87 2.306-15.88h-18.592c-.55228475 0-1-.4477153-1-1s.44771525-1 1-1c2.76064226-.000002 4.99889307-2.23736036 4.999996-4.9980024.0011029-2.76064204-2.23535942-4.99978815-4.9960008-5.001996s-5.00068243 2.23335812-5.0039952 4.9939984v46c0 2.7614237 2.23857625 5 5 5s5-2.2385763 5-5-2.23857625-5-5-5zm2-28h10c.5522847 0 1 .4477153 1 1s-.4477153 1-1 1h-10c-.55228475 0-1-.4477153-1-1s.44771525-1 1-1zm0 5h10c.5522847 0 1 .4477153 1 1s-.4477153 1-1 1h-10c-.55228475 0-1-.4477153-1-1s.44771525-1 1-1zm0 5h10c.5522847 0 1 .4477153 1 1s-.4477153 1-1 1h-10c-.55228475 0-1-.4477153-1-1s.44771525-1 1-1zm0 5h8c.5522847 0 1 .4477153 1 1s-.4477153 1-1 1h-8c-.55228475 0-1-.4477153-1-1s.44771525-1 1-1z"/><path id="Shape" d="m9.9 10h15.34c.229-.248.464-.5.711-.745 2.4673582-2.58552382 5.7180008-4.28588159 9.249-4.838.024 0 .046-.008.071-.011 2.796826-.3437938 5.6237074-.36794944 8.426-.072.759.053 1.509.1 2.254.143-.2619617-2.5391824-2.3983473-4.47103424-4.951-4.477h-31.1c1.3460529 1.31539279 2.104889 3.11794883 2.104889 5s-.7588361 3.68460721-2.104889 5z"/><path id="Shape" d="m41 46h-31.1c1.3460529 1.3153928 2.104889 3.1179488 2.104889 5s-.7588361 3.6846072-2.104889 5h31.1c2.7614237 0 5-2.2385763 5-5s-2.2385763-5-5-5z"/><path id="Shape" d="m22.265 30.259c-1.0456686 2.0223912-1.8958594 4.1399992-2.539 6.324l1.974-1.443c.0793611-1.6377721.2681153-3.2684073.565-4.881z"/><path id="Shape" d="m43.758 6.343c-.7797628.54092194-1.4183128 1.26109102-1.862 2.1-.1684638.34092898-.5157204.55680162-.896.557-.1534244.00148103-.3050894-.03275485-.443-.1-.4948363-.24522387-.6972001-.8451519-.452-1.34.2540707-.49547973.566999-.95849271.932-1.379-1.6754407-.10614244-3.3570703-.05928175-5.024.14-.6750997 1.10745753-1.0260574 2.38206079-1.013 3.679 0 .5522847-.4477153 1-1 1s-1-.4477153-1-1c-.0005194-1.07401885.1859305-2.13993019.551-3.15-2.3506091.72736029-4.4778397 2.04010456-6.182 3.815-.188.19-.366.379-.542.568-.1780769 1.1720043-.129532 2.3672964.143 3.521.135862.5357162-.1882838 1.0801379-.724 1.216-.5357162.135862-1.0801379-.1882838-1.216-.724-.1163939-.4824319-.1972772-.972745-.242-1.467-2.5151479 3.4369595-3.3091597 7.8399813-2.153 11.939.545-.809 1.132-1.622 1.785-2.432.009-.012.017-.023.027-.034 8.123-10.064 14.3-12.493 24.274-13.877.3538716-.04983855.7074509.09289696.9275482.37443946.2200972.28154244.2732743.65911894.1395.99050004-.1337744.331381-.4341766.566222-.7880482.6160605-9.612 1.333-15.216 3.544-22.93 13.068-.6282384 1.4516443-1.1216494 2.9579871-1.474 4.5 1.6946337.9251568 3.6700597 1.1956169 5.551.76 1.8337569-.388111 3.5274947-1.267472 4.9-2.544-1.5592772-.1457696-3.0806013-.5655386-4.494-1.24-.4942948-.2468713-.6948712-.8477051-.448-1.342.2468713-.4942948.8477052-.6948713 1.342-.448 1.6509763.7592945 3.4478039 1.1490338 5.265 1.142.3942201-.552143.7481367-1.1319781 1.059-1.735.7439612-1.4616404 1.7776034-2.7565852 3.038-3.806-.5643632-.2338274-1.0789046-.5732346-1.516-1-.3910176-.3904653-.3914653-1.0239824-.001-1.415s1.0239824-.3914653 1.415-.001c.6386031.5607375 1.4507725.884546 2.3.917 1.8839701-.9726774 3.8604656-1.7545656 5.9-2.334l.708-.227c4.218-1.353 5.694-7.391 6.174-10.427-4.005 1.64-8.074 1.391-12.031 1.119z"/></g></g></svg>